<svg xmlns="http://www.w3.org/2000/svg" xmlns:xlink="http://www.w3.org/1999/xlink" width="500" zoomAndPan="magnify" viewBox="0 0 375 374.999991" height="500" preserveAspectRatio="xMidYMid meet" version="1.0"><defs><g/></defs><g fill="#000000" fill-opacity="1"><g transform="translate(146.079882, 357.091793)"><g><path d="M 56.453125 -319.171875 L 57.78125 -318.734375 C 58.675781 -313.984375 59.566406 -306.492188 60.453125 -296.265625 C 61.347656 -286.046875 62.238281 -274.117188 63.125 -260.484375 C 64.007812 -246.859375 64.894531 -232.039062 65.78125 -216.03125 C 66.675781 -200.03125 67.421875 -183.804688 68.015625 -167.359375 C 68.609375 -150.910156 69.050781 -134.757812 69.34375 -118.90625 C 69.644531 -103.050781 69.796875 -88.601562 69.796875 -75.5625 C 69.796875 -67.269531 69.421875 -59.9375 68.671875 -53.5625 C 67.929688 -47.195312 66.597656 -40.972656 64.671875 -34.890625 C 62.753906 -28.816406 60.015625 -22.519531 56.453125 -16 C 52.898438 -9.476562 48.457031 -2.21875 43.125 5.78125 L 41.34375 5.78125 L 39.125 4 C 40.601562 -3.707031 41.5625 -15.859375 42 -32.453125 C 42.445312 -49.046875 42.671875 -68.898438 42.671875 -92.015625 C 42.671875 -104.753906 42.375 -119.421875 41.78125 -136.015625 C 41.1875 -152.617188 40.445312 -169.289062 39.5625 -186.03125 C 38.675781 -202.78125 37.566406 -218.785156 36.234375 -234.046875 C 34.898438 -249.304688 33.488281 -262.125 32 -272.5 C 31.707031 -273.382812 31.5625 -274.566406 31.5625 -276.046875 C 31.5625 -277.535156 31.5625 -278.578125 31.5625 -279.171875 C 31.5625 -281.535156 31.859375 -283.898438 32.453125 -286.265625 C 33.046875 -288.640625 34.082031 -290.71875 35.5625 -292.5 Z M 56.453125 -319.171875 "/></g></g></g></svg>